<svg width="14" height="14" viewBox="0 0 14 14" fill="none" xmlns="http://www.w3.org/2000/svg">
<path d="M13.1753 5.87271H12.2777V2.03223C12.2777 0.927486 11.3956 0.0107872 10.2909 9.57571e-05C9.17536 -0.010705 8.26443 0.89358 8.26443 2.00663V2.34203C8.1209 2.40339 7.98752 2.48887 7.8703 2.5968C7.65239 2.79747 7.50652 3.05962 7.45008 3.3464C7.22993 3.44038 7.07681 3.66194 7.08427 3.91769C7.09384 4.24532 7.37275 4.5012 7.70055 4.5012H9.91867C10.2464 4.5012 10.5254 4.24532 10.5349 3.91769C10.5424 3.66194 10.3893 3.44038 10.1691 3.3464C10.1127 3.05964 9.96685 2.7975 9.74895 2.5968C9.63173 2.48884 9.49834 2.40334 9.35482 2.34203V2.02487C9.35482 1.51223 9.77435 1.08173 10.2869 1.09048C10.7849 1.09896 11.1874 1.50668 11.1874 2.00663V5.87274H3.21696C3.10215 5.87274 3.00904 5.96585 3.00904 6.08066C3.00904 6.19548 3.10215 6.28858 3.21696 6.28858H11.3936C11.3941 6.28858 11.3947 6.28867 11.3952 6.28867H12.0697C12.0703 6.28867 12.0708 6.28858 12.0713 6.28858H13.1828C13.3928 6.28858 13.5735 6.44988 13.5836 6.65964C13.589 6.77096 13.548 6.87672 13.4702 6.95484C13.3962 7.02861 13.2981 7.06925 13.1939 7.06925H0.817824C0.598336 7.06925 0.411086 6.88963 0.415926 6.67019C0.418141 6.56916 0.4585 6.47466 0.530551 6.40283C0.604051 6.32913 0.701996 6.28856 0.80634 6.28856H2.24664C2.36146 6.28856 2.45457 6.19545 2.45457 6.08064C2.45457 5.96582 2.36146 5.87271 2.24664 5.87271H0.80634C0.590652 5.87271 0.388145 5.95671 0.236523 6.1088C0.084 6.26086 0 6.46337 0 6.67908C0 7.05164 0.25427 7.36587 0.598418 7.45778V8.64318C0.598418 9.37703 0.806121 10.0903 1.19908 10.706C1.5613 11.2736 2.06448 11.7347 2.65869 12.0457L2.88783 13.7452C2.90172 13.8484 2.98979 13.9254 3.09389 13.9254H3.7975C3.91232 13.9254 4.00542 13.8323 4.00542 13.7174V12.4582C4.14889 12.4743 4.29354 12.4825 4.43781 12.4825H8.19654C8.65156 12.4825 9.10126 12.4238 9.53725 12.3079V13.7174C9.53725 13.8323 9.63036 13.9254 9.74518 13.9254H10.4488C10.5529 13.9254 10.6409 13.8484 10.6548 13.7453L10.9297 11.7076C11.3664 11.4378 11.7582 11.1076 12.0976 10.7234C12.1762 10.6345 12.1656 10.4982 12.0735 10.4235C11.9873 10.3534 11.861 10.3632 11.7875 10.4464C11.552 10.7131 11.2891 10.9515 11.0018 11.1593C11.0147 10.966 10.9508 10.7747 10.8224 10.6278C10.6511 10.432 10.3862 10.3389 10.1236 10.392C9.77903 10.4617 9.53728 10.7744 9.53728 11.1259V11.8762C9.10295 12.0025 8.65271 12.0666 8.19656 12.0666H4.43781C4.29343 12.0666 4.14862 12.0573 4.00542 12.0393V11.1258C4.00542 10.7742 3.76365 10.4616 3.41904 10.3919C3.1564 10.3388 2.89157 10.432 2.72038 10.6278C2.58114 10.7871 2.51754 10.9987 2.54584 11.2083L2.58839 11.524C2.17263 11.2568 1.81779 10.9024 1.54965 10.4822C1.19943 9.93351 1.01429 9.29754 1.01429 8.6431V7.48504H12.981C12.9474 8.26671 12.7252 9.02383 12.331 9.69633C12.2749 9.79208 12.305 9.91513 12.3984 9.97518L12.3984 9.9752C12.4983 10.0394 12.6311 10.0068 12.6911 9.90436C13.1263 9.16113 13.3688 8.32312 13.3987 7.45879C13.5355 7.42308 13.6611 7.35165 13.7643 7.24884C13.9183 7.09427 14.0022 6.88859 14 6.67044C13.9954 6.22547 13.6203 5.87271 13.1753 5.87271ZM9.93379 3.71425C10.0361 3.71425 10.1193 3.79751 10.1193 3.89981C10.1193 4.0021 10.0361 4.08536 9.93379 4.08536H7.6854C7.58308 4.08536 7.49984 4.0021 7.49984 3.89981C7.49984 3.79751 7.58308 3.71425 7.6854 3.71425H9.93379ZM9.72609 3.29838H7.89307C8.02602 2.91866 8.3915 2.64626 8.80958 2.64626C9.22767 2.64626 9.59314 2.91866 9.72609 3.29838ZM11.8618 5.87274H11.6032V2.00663C11.6032 1.27207 11.0056 0.674502 10.2711 0.674502C9.53652 0.674502 8.93895 1.2721 8.93895 2.00663V2.23643C8.89615 2.23244 8.853 2.23042 8.80958 2.23042C8.76616 2.23042 8.72304 2.23244 8.68022 2.23643V2.00663C8.68022 1.12945 9.39386 0.41583 10.271 0.41583C11.1482 0.41583 11.8618 1.12947 11.8618 2.00663V5.87274H11.8618ZM9.95312 11.1104C9.95312 10.9354 10.0955 10.7931 10.2704 10.7931C10.3633 10.7931 10.4482 10.8316 10.5093 10.9015C10.5705 10.9714 10.5973 11.0607 10.5849 11.1528L10.2671 13.5095H9.95312V11.1104ZM3.03349 10.9016C3.09463 10.8316 3.17945 10.7931 3.27234 10.7931C3.44725 10.7931 3.58961 10.9354 3.58961 11.1104V13.5095H3.2757L2.95794 11.1528C2.94552 11.0607 2.97232 10.9715 3.03349 10.9016Z" fill="#9D9D9D"/>
</svg>
